# Blender v3.2.0 OBJ File: 'crystal-tower.blend'
# www.blender.org
o craft_miner
v 0.114831 0.078796 -0.609316
v 0.191385 0.078796 -0.532762
v 0.191385 0.078796 -0.609316
v 0.114831 0.078796 -0.532762
v 0.114831 0.193627 -0.532762
v 0.114831 0.193627 -0.609316
v 0.191385 0.193627 -0.532762
v 0.191385 0.193627 -0.609316
v -0.191385 0.078796 -0.609316
v -0.114831 0.078796 -0.532762
v -0.114831 0.078796 -0.609316
v -0.191385 0.078796 -0.532762
v -0.191385 0.193627 -0.532762
v -0.114831 0.193627 -0.609316
v -0.114831 0.193627 -0.532762
v -0.191385 0.193627 -0.609316
v 0.076554 0.231904 -0.571039
v 0.229661 0.193627 -0.456208
v 0.229661 0.231904 -0.571039
v 0.076554 0.208938 -0.502141
v 0.076554 0.193627 -0.456208
v 0.076554 0.231904 -0.609316
v 0.229661 0.231904 -0.609316
v 0.229661 0.040519 -0.609316
v 0.229661 0.117073 -0.456208
v 0.229661 0.040519 -0.226547
v 0.229661 0.117073 -0.226547
v 0.076554 0.040519 -0.226547
v 0.076554 0.040519 -0.532762
v 0.076554 0.040519 -0.609316
v 0.076554 0.193627 -0.532762
v 0.076554 0.231904 -0.456208
v -0.076554 0.270181 -0.379655
v 0.076554 0.270181 -0.379655
v -0.076554 0.231904 -0.456208
v -0.076554 0.208938 -0.502141
v -0.076554 0.193627 -0.532762
v 0.076554 0.231904 -0.303101
v 0.076554 0.270181 -0.226547
v 0.076554 0.193627 -0.303101
v 0.076554 0.193627 -0.226547
v -0.076554 0.040519 -0.532762
v -0.076554 0.002242 -0.379655
v 0.076554 0.002242 -0.379655
v -0.076554 0.270181 -0.226547
v -0.076554 0.002242 -0.226547
v 0.076554 0.002242 -0.226547
v -0.076554 0.231904 -0.571039
v -0.076554 0.040519 -0.609316
v -0.076554 0.231904 -0.609316
v -0.229661 0.231904 -0.571039
v -0.076554 0.193627 -0.456208
v -0.229661 0.193627 -0.456208
v -0.229661 0.231904 -0.609316
v -0.229661 0.040519 -0.609316
v -0.229661 0.117073 -0.456208
v -0.229661 0.040519 -0.226547
v -0.229661 0.117073 -0.226547
v -0.076554 0.040519 -0.226547
v -0.076554 0.231904 -0.303101
v -0.076554 0.193627 -0.226547
v -0.076554 0.193627 -0.303101
v 0.263897 0.032437 0.156222
v 0.248800 0.002242 -0.073439
v 0.263897 0.032437 -0.073439
v 0.248800 0.002242 0.156222
v 0.229661 0.117073 0.156222
v 0.218178 0.140039 -0.073439
v 0.229661 0.117073 -0.073439
v 0.218178 0.140039 0.156222
v 0.248800 0.155350 0.156222
v 0.263897 0.125155 -0.073439
v 0.248800 0.155350 -0.073439
v 0.263897 0.125155 0.156222
v 0.218178 0.017553 0.156222
v 0.229661 0.040519 0.156222
v 0.218178 0.017553 -0.073439
v 0.229661 0.040519 -0.073439
v 0.153108 0.040519 0.156222
v 0.153108 0.061194 -0.073439
v 0.153108 0.040519 -0.073439
v 0.153108 0.061194 0.003115
v 0.153108 0.080333 0.003115
v 0.153108 0.117073 0.156222
v 0.153108 0.099471 0.003115
v 0.153108 0.117073 -0.073439
v 0.153108 0.099471 -0.073439
v 0.153108 0.050089 0.271053
v 0.153108 0.107504 0.271053
v -0.153108 0.117073 0.156222
v -0.153108 0.097935 -0.073439
v -0.153108 0.117073 -0.073439
v -0.153108 0.097935 0.003115
v -0.153108 0.059658 0.003115
v -0.153108 0.040519 0.156222
v -0.153108 0.040519 -0.073439
v -0.153108 0.059658 -0.073439
v -0.153108 0.107504 0.271053
v -0.153108 0.050089 0.271053
v -0.153108 0.078796 0.003115
v -0.263897 0.032437 -0.073439
v -0.218178 0.017553 -0.073439
v -0.248800 0.002242 -0.073439
v -0.229661 0.040519 -0.073439
v -0.263897 0.125155 -0.073439
v -0.229661 0.117073 -0.073439
v -0.218178 0.140039 -0.073439
v -0.248800 0.155350 -0.073439
v -0.218178 0.140039 0.156222
v -0.229661 0.117073 0.156222
v -0.263897 0.125155 0.156222
v -0.248800 0.155350 0.156222
v -0.218178 0.017553 0.156222
v -0.263897 0.032437 0.156222
v -0.248800 0.002242 0.156222
v -0.229661 0.040519 0.156222
v 0.229661 0.231904 -0.456208
v 0.229661 0.231904 -0.303101
v 0.229661 0.193627 -0.303101
v 0.172246 0.231904 -0.303101
v 0.133969 0.231904 -0.303101
v 0.133969 0.231904 -0.264824
v 0.172246 0.231904 -0.264824
v 0.133969 0.193627 -0.303101
v 0.172246 0.193627 -0.303101
v 0.172246 0.193627 -0.226547
v 0.172246 0.212765 -0.226547
v 0.133969 0.212765 -0.226547
v 0.133969 0.193627 -0.226547
v -0.229661 0.231904 -0.456208
v -0.133969 0.231904 -0.303101
v -0.172246 0.231904 -0.303101
v -0.229661 0.231904 -0.303101
v -0.172246 0.231904 -0.264824
v -0.133969 0.231904 -0.264824
v -0.229661 0.193627 -0.303101
v 0.229661 0.097935 0.385884
v 0.229661 0.107504 0.271053
v 0.153108 0.097935 0.385884
v 0.229661 0.050089 0.271053
v 0.229661 0.059658 0.385884
v 0.153108 0.059658 0.385884
v 0.114831 0.061194 -0.035162
v 0.114831 0.099471 -0.073439
v 0.114831 0.061194 -0.073439
v 0.114831 0.099471 -0.035162
v 0.133969 0.061194 0.003115
v 0.133969 0.099471 0.003115
v -0.133969 0.193627 -0.303101
v -0.172246 0.193627 -0.303101
v -0.172246 0.193627 -0.226547
v -0.172246 0.212765 -0.226547
v -0.133969 0.212765 -0.226547
v -0.133969 0.193627 -0.226547
v -0.114831 0.097935 -0.035162
v -0.114831 0.059658 -0.073439
v -0.114831 0.097935 -0.073439
v -0.114831 0.059658 -0.035162
v -0.133969 0.097935 0.003115
v -0.133969 0.059658 0.003115
v -0.153108 0.097935 0.385884
v -0.153108 0.059658 0.385884
v -0.229661 0.059658 0.385884
v -0.229661 0.097935 0.385884
v -0.229661 0.107504 0.271053
v -0.229661 0.050089 0.271053
v 0.344492 0.117073 -0.456208
v 0.344492 0.193627 -0.456208
v 0.344492 0.193627 -0.379655
v 0.344492 0.117073 -0.379655
v 0.267938 0.193627 -0.226547
v 0.267938 0.117073 -0.226547
v 0.229661 0.193627 -0.226547
v 0.076554 0.117073 -0.073439
v 0.076554 0.040519 -0.073439
v -0.344492 0.193627 -0.456208
v -0.344492 0.117073 -0.456208
v -0.267938 0.117073 -0.226547
v -0.344492 0.117073 -0.379655
v -0.344492 0.193627 -0.379655
v -0.267938 0.193627 -0.226547
v 0.076554 0.021381 -0.073439
v -0.076554 0.021381 -0.073439
v -0.229661 0.193627 -0.226547
v -0.076554 0.040519 -0.073439
v -0.076554 0.117073 -0.073439
vt 0.760417 0.418849
vt 0.760417 0.418849
vt 0.760417 0.418849
vt 0.760417 0.418849
vt 0.760417 0.418849
vt 0.760417 0.418849
vt 0.760417 0.418849
vt 0.760417 0.418849
vt 0.760417 0.418849
vt 0.760417 0.418849
vt 0.760417 0.418849
vt 0.760417 0.418849
vt 0.760417 0.418849
vt 0.760417 0.418849
vt 0.760417 0.418849
vt 0.760417 0.418849
vt 0.760417 0.418849
vt 0.760417 0.418849
vt 0.760417 0.418849
vt 0.760417 0.418849
vt 0.760417 0.418849
vt 0.760417 0.418849
vt 0.760417 0.418849
vt 0.760417 0.418849
vt 0.760417 0.418849
vt 0.760417 0.418849
vt 0.760417 0.418849
vt 0.760417 0.418849
vt 0.760417 0.418849
vt 0.760417 0.418849
vt 0.760417 0.418849
vt 0.760417 0.418849
vt 0.760417 0.418849
vt 0.760417 0.418849
vt 0.760417 0.418849
vt 0.760417 0.418849
vt 0.760417 0.418849
vt 0.760417 0.418849
vt 0.744792 0.752183
vt 0.744792 0.752183
vt 0.744792 0.752183
vt 0.744792 0.752183
vt 0.744792 0.752183
vt 0.760417 0.418849
vt 0.760417 0.418849
vt 0.760417 0.418849
vt 0.744792 0.752183
vt 0.744792 0.752183
vt 0.744792 0.752183
vt 0.744792 0.752183
vt 0.744792 0.752183
vt 0.744792 0.752183
vt 0.744792 0.752183
vt 0.760417 0.418849
vt 0.760417 0.418849
vt 0.760417 0.418849
vt 0.760417 0.418849
vt 0.760417 0.418849
vt 0.760417 0.418849
vt 0.760417 0.418849
vt 0.760417 0.418849
vt 0.760417 0.418849
vt 0.760417 0.418849
vt 0.760417 0.418849
vt 0.760417 0.418849
vt 0.744792 0.752183
vt 0.760417 0.418849
vt 0.744792 0.752183
vt 0.744792 0.752183
vt 0.744792 0.752183
vt 0.765625 0.413641
vt 0.765625 0.413641
vt 0.765625 0.413641
vt 0.765625 0.413641
vt 0.770833 0.440985
vt 0.770833 0.440985
vt 0.770833 0.440985
vt 0.770833 0.440985
vt 0.755208 0.418849
vt 0.755208 0.418849
vt 0.755208 0.418849
vt 0.765625 0.413641
vt 0.765625 0.413641
vt 0.765625 0.413641
vt 0.765625 0.413641
vt 0.765625 0.413641
vt 0.765625 0.413641
vt 0.765625 0.413641
vt 0.770833 0.440985
vt 0.770833 0.440985
vt 0.770833 0.440985
vt 0.770833 0.440985
vt 0.770833 0.440985
vt 0.770833 0.440985
vt 0.770833 0.440985
vt 0.744792 0.752183
vt 0.744792 0.752183
vt 0.744792 0.752183
vt 0.744792 0.752183
vt 0.770833 0.440985
vt 0.744792 0.752183
vt 0.744792 0.752183
vt 0.744792 0.752183
vt 0.744792 0.752183
vt 0.744792 0.752183
vt 0.744792 0.752183
vt 0.744792 0.752183
vt 0.744792 0.752183
vt 0.744792 0.752183
vt 0.744792 0.752183
vt 0.744792 0.752183
vt 0.744792 0.752183
vt 0.744792 0.752183
vt 0.744792 0.752183
vt 0.744792 0.752183
vt 0.744792 0.752183
vt 0.744792 0.752183
vt 0.744792 0.752183
vt 0.744792 0.752183
vt 0.744792 0.752183
vt 0.744792 0.752183
vt 0.744792 0.752183
vt 0.744792 0.752183
vt 0.744792 0.752183
vt 0.744792 0.752183
vt 0.744792 0.752183
vt 0.760417 0.418849
vt 0.760417 0.418849
vt 0.760417 0.418849
vt 0.744792 0.752183
vt 0.744792 0.752183
vt 0.744792 0.752183
vt 0.744792 0.752183
vt 0.760417 0.418849
vt 0.760417 0.418849
vt 0.760417 0.418849
vt 0.760417 0.418849
vt 0.760417 0.418849
vt 0.760417 0.418849
vt 0.760417 0.418849
vt 0.760417 0.418849
vt 0.760417 0.418849
vt 0.760417 0.418849
vt 0.744792 0.752183
vt 0.744792 0.752183
vt 0.744792 0.752183
vt 0.760417 0.418849
vt 0.744792 0.752183
vt 0.744792 0.752183
vt 0.744792 0.752183
vt 0.760417 0.418849
vt 0.760417 0.418849
vt 0.760417 0.418849
vt 0.760417 0.408433
vt 0.760417 0.408433
vt 0.760417 0.408433
vt 0.760417 0.418849
vt 0.760417 0.418849
vt 0.760417 0.418849
vt 0.760417 0.418849
vt 0.760417 0.418849
vt 0.760417 0.418849
vt 0.760417 0.418849
vt 0.760417 0.418849
vt 0.760417 0.418849
vt 0.760417 0.418849
vt 0.760417 0.418849
vt 0.760417 0.418849
vt 0.760417 0.418849
vt 0.760417 0.418849
vt 0.760417 0.418849
vt 0.760417 0.418849
vt 0.760417 0.418849
vt 0.760417 0.418849
vt 0.760417 0.418849
vt 0.760417 0.418849
vt 0.250000 0.418849
vt 0.250000 0.418849
vt 0.250000 0.418849
vt 0.250000 0.418849
vt 0.250000 0.418849
vt 0.250000 0.418849
vt 0.250000 0.418849
vt 0.250000 0.418849
vt 0.250000 0.418851
vt 0.250000 0.418851
vt 0.744792 0.413641
vt 0.744792 0.413641
vt 0.744792 0.413641
vt 0.744792 0.413641
vt 0.760417 0.418849
vt 0.760417 0.418849
vt 0.760417 0.418849
vt 0.760417 0.418849
vt 0.760417 0.418849
vt 0.760417 0.418849
vt 0.760417 0.418849
vt 0.760417 0.418849
vt 0.760417 0.418849
vt 0.760417 0.418849
vt 0.760417 0.418849
vt 0.760417 0.418849
vt 0.760417 0.418849
vt 0.760417 0.418849
vt 0.760417 0.418849
vt 0.760417 0.418849
vt 0.744792 0.752183
vt 0.744792 0.752183
vt 0.744792 0.752183
vt 0.744792 0.752183
vt 0.760417 0.418849
vt 0.760417 0.418849
vt 0.760417 0.418849
vt 0.760417 0.418849
vt 0.760417 0.418849
vt 0.760417 0.418849
vt 0.760417 0.418849
vt 0.760417 0.418849
vt 0.760417 0.418849
vt 0.755208 0.413641
vt 0.755208 0.413641
vt 0.755208 0.413641
vt 0.755208 0.413641
vt 0.755208 0.413641
vt 0.755208 0.413641
vt 0.760417 0.418849
vt 0.760417 0.418849
vt 0.760417 0.418849
vt 0.250000 0.418849
vt 0.250000 0.418849
vt 0.250000 0.418849
vt 0.250000 0.418849
vt 0.250000 0.418849
vt 0.250000 0.418849
vt 0.250000 0.418849
vt 0.250000 0.418849
vt 0.250000 0.418851
vt 0.250000 0.418851
vt 0.744792 0.752183
vt 0.744792 0.752183
vt 0.744792 0.752183
vt 0.744792 0.752183
vt 0.744792 0.752183
vt 0.744792 0.752183
vt 0.744792 0.752183
vt 0.744792 0.752183
vt 0.744792 0.746974
vt 0.744792 0.746974
vt 0.744792 0.746974
vt 0.739583 0.741766
vt 0.739583 0.741766
vt 0.739583 0.741766
vt 0.760417 0.418849
vt 0.750000 0.752183
vt 0.750000 0.752183
vt 0.750000 0.752183
vt 0.750000 0.752183
vt 0.750000 0.752183
vt 0.750000 0.752183
vt 0.750000 0.752183
vt 0.750000 0.752183
vt 0.744792 0.752183
vt 0.744792 0.752183
vt 0.744792 0.752183
vt 0.744792 0.752183
vt 0.744792 0.752183
vt 0.744792 0.752183
vt 0.744792 0.752183
vt 0.744792 0.752183
vt 0.760417 0.418849
vt 0.760417 0.418849
vt 0.739583 0.752183
vt 0.739583 0.752183
vt 0.739583 0.752183
vt 0.744792 0.752181
vt 0.744792 0.752183
vt 0.744792 0.752181
vt 0.744792 0.752183
vt 0.744792 0.752183
vt 0.744792 0.752183
vt 0.744792 0.752183
vt 0.744792 0.752183
vt 0.744792 0.752183
vt 0.744792 0.752183
vt 0.744792 0.752183
vt 0.744792 0.752183
vt 0.744792 0.752183
vt 0.744792 0.752183
vt 0.744792 0.752183
vt 0.744792 0.752183
vt 0.744792 0.752183
vt 0.744792 0.752183
vt 0.744792 0.752183
vt 0.744792 0.752183
vt 0.744792 0.752183
vt 0.750000 0.752183
vt 0.750000 0.752183
vt 0.750000 0.752183
vt 0.750000 0.752183
vt 0.750000 0.752183
vt 0.750000 0.752183
vt 0.750000 0.752183
vt 0.744792 0.752183
vt 0.744792 0.752183
vt 0.744792 0.752183
vt 0.744792 0.752185
vn 0.0000 1.0000 0.0000
vn 1.0000 0.0000 0.0000
vn 0.0000 0.0000 -1.0000
vn 0.0000 -1.0000 0.0000
vn -1.0000 0.0000 0.0000
vn 0.0000 0.9487 0.3162
vn -0.0000 0.8944 -0.4472
vn -0.9150 0.0275 -0.4024
vn 0.0000 -0.9701 -0.2425
vn 0.8944 -0.4472 -0.0000
vn -0.8944 -0.4472 0.0000
vn 0.8944 0.4472 0.0000
vn -0.0000 0.0000 1.0000
vn -0.4472 -0.8944 -0.0000
vn -0.8944 0.4472 0.0000
vn -0.4472 0.8944 0.0000
vn 0.4472 0.8944 0.0000
vn 0.4472 -0.8944 -0.0000
vn 0.0000 0.8944 0.4472
vn 0.0000 0.9965 0.0830
vn 0.0000 -0.9965 0.0830
vn -0.8944 -0.0000 0.4472
vn 0.8944 -0.0000 0.4472
vn 0.0000 1.0000 0.0002
vn 0.0000 1.0000 0.0001
vn 0.0000 -0.9923 0.1240
s 1
f 1/1/1 2/2/1 3/3/1
f 2/2/1 1/1/1 4/4/1
f 5/5/2 1/1/2 6/6/2
f 1/1/2 5/5/2 4/4/2
f 5/5/3 2/2/3 4/4/3
f 2/2/3 5/5/3 7/7/3
f 5/5/4 8/8/4 7/7/4
f 8/8/4 5/5/4 6/6/4
f 2/2/5 8/8/5 3/3/5
f 8/8/5 2/2/5 7/7/5
f 9/9/1 10/10/1 11/11/1
f 10/10/1 9/9/1 12/12/1
f 13/13/4 14/14/4 15/15/4
f 14/14/4 13/13/4 16/16/4
f 13/13/3 10/10/3 12/12/3
f 10/10/3 13/13/3 15/15/3
f 10/10/5 14/14/5 11/11/5
f 14/14/5 10/10/5 15/15/5
f 13/13/2 9/9/2 16/16/2
f 9/9/2 13/13/2 12/12/2
f 17/17/6 18/18/6 19/19/6
f 18/18/6 17/17/6 20/20/6
f 21/21/6 18/18/6 20/20/6
f 22/22/1 19/19/1 23/23/1
f 19/19/1 22/22/1 17/17/1
f 19/19/2 24/24/2 23/23/2
f 24/24/2 19/19/2 25/25/2
f 24/24/2 25/25/2 26/26/2
f 25/25/2 19/19/2 18/18/2
f 26/26/2 25/25/2 27/27/2
f 28/28/4 24/24/4 26/26/4
f 24/24/4 28/28/4 29/29/4
f 24/24/4 29/29/4 30/30/4
f 29/29/5 22/22/5 30/30/5
f 22/22/5 29/29/5 17/17/5
f 17/17/5 29/29/5 31/31/5
f 20/20/5 17/17/5 31/31/5
f 31/31/7 32/32/7 20/20/8
f 33/33/7 32/32/7 31/31/7
f 32/32/7 33/33/7 34/34/7
f 33/33/7 31/31/7 35/35/7
f 35/35/7 31/31/7 36/36/7
f 37/37/7 36/36/7 31/31/7
f 21/21/2 20/20/2 32/32/2
f 34/34/2 38/38/2 32/32/2
f 38/39/2 34/40/2 39/41/2
f 38/39/2 39/41/2 40/42/2
f 40/42/2 39/41/2 41/43/2
f 37/37/3 29/29/3 42/44/3
f 29/29/3 37/37/3 31/31/3
f 43/45/9 29/29/9 44/46/9
f 29/29/9 43/45/9 42/44/9
f 33/47/1 39/41/1 34/40/1
f 39/41/1 33/47/1 45/48/1
f 46/49/4 44/50/4 47/51/4
f 44/50/4 46/49/4 43/52/4
f 28/28/2 44/46/2 29/29/2
f 44/50/2 28/53/2 47/51/2
f 36/36/2 37/37/2 48/54/2
f 42/44/2 48/54/2 37/37/2
f 49/55/2 48/54/2 42/44/2
f 48/54/2 49/55/2 50/56/2
f 51/57/6 36/36/6 48/54/6
f 36/36/6 51/57/6 52/58/6
f 52/58/6 51/57/6 53/59/6
f 54/60/1 48/54/1 50/56/1
f 48/54/1 54/60/1 51/57/1
f 55/61/5 56/62/5 54/60/5
f 56/62/5 55/61/5 57/63/5
f 54/60/5 56/62/5 51/57/5
f 56/62/5 57/63/5 58/64/5
f 53/59/5 51/57/5 56/62/5
f 43/45/5 59/65/5 42/44/5
f 59/66/5 43/52/5 46/49/5
f 57/63/4 42/44/4 59/65/4
f 55/61/4 42/44/4 57/63/4
f 42/44/4 55/61/4 49/55/4
f 52/58/5 35/35/5 36/36/5
f 60/67/5 33/33/5 35/35/5
f 33/47/5 60/68/5 45/48/5
f 45/48/5 60/68/5 61/69/5
f 61/69/5 60/68/5 62/70/5
f 63/71/10 64/72/10 65/73/10
f 64/72/10 63/71/10 66/74/10
f 67/75/11 68/76/11 69/77/11
f 68/76/11 67/75/11 70/78/11
f 71/79/12 72/80/12 73/81/12
f 72/82/12 71/83/12 74/84/12
f 63/71/13 75/85/13 66/74/13
f 75/85/13 63/71/13 76/86/13
f 76/86/13 63/71/13 74/84/13
f 76/86/13 74/84/13 67/87/13
f 67/87/13 74/84/13 70/88/13
f 70/88/13 74/84/13 71/83/13
f 75/85/14 64/72/14 66/74/14
f 64/89/14 75/90/14 77/91/14
f 77/91/3 65/92/3 64/89/3
f 65/92/3 77/91/3 78/93/3
f 65/92/3 78/93/3 72/94/3
f 72/94/3 78/93/3 69/77/3
f 72/94/3 69/77/3 68/76/3
f 72/94/3 68/76/3 73/95/3
f 75/96/15 78/97/15 77/98/15
f 78/97/15 75/96/15 76/99/15
f 68/76/16 71/100/16 73/95/16
f 71/100/16 68/76/16 70/78/16
f 74/84/2 65/73/2 72/82/2
f 65/73/2 74/84/2 63/71/2
f 79/101/5 80/102/5 81/103/5
f 80/102/5 79/101/5 82/104/5
f 82/104/5 79/101/5 83/105/5
f 84/106/5 83/105/5 79/101/5
f 84/106/5 85/107/5 83/105/5
f 86/108/5 85/107/5 84/106/5
f 85/107/5 86/108/5 87/109/5
f 84/106/5 79/101/5 88/110/5
f 84/106/5 88/110/5 89/111/5
f 90/112/2 91/113/2 92/114/2
f 91/113/2 90/112/2 93/115/2
f 93/115/2 90/112/2 94/116/2
f 95/117/2 94/116/2 90/112/2
f 96/118/2 94/116/2 95/117/2
f 94/116/2 96/118/2 97/119/2
f 95/117/2 90/112/2 98/120/2
f 95/117/2 98/120/2 99/121/2
f 94/116/2 100/122/13 93/115/2
f 101/123/3 102/124/3 103/125/3
f 102/124/3 101/123/3 104/126/3
f 104/127/3 101/128/3 105/129/3
f 104/126/3 105/130/3 106/131/3
f 106/131/3 105/130/3 107/132/3
f 107/132/3 105/130/3 108/133/3
f 109/134/10 106/135/10 107/136/10
f 106/135/10 109/134/10 110/137/10
f 111/138/15 108/139/15 105/129/15
f 108/139/15 111/138/15 112/140/15
f 113/141/13 114/142/13 115/143/13
f 114/144/13 113/145/13 116/146/13
f 114/142/13 116/147/13 111/138/13
f 111/138/13 116/147/13 110/137/13
f 111/148/13 110/149/13 109/150/13
f 111/138/13 109/134/13 112/140/13
f 115/143/11 101/128/11 103/151/11
f 101/128/11 115/143/11 114/142/11
f 116/147/12 102/152/12 104/127/12
f 102/152/12 116/147/12 113/141/12
f 108/139/17 109/134/17 107/136/17
f 109/134/17 108/139/17 112/140/17
f 114/142/5 105/129/5 101/128/5
f 105/129/5 114/142/5 111/138/5
f 115/143/18 102/152/18 113/141/18
f 102/152/18 115/143/18 103/151/18
f 30/30/3 1/1/3 24/24/3
f 1/1/3 30/30/3 22/22/3
f 1/1/3 22/22/3 6/6/3
f 6/6/3 22/22/3 8/8/3
f 3/3/3 24/24/3 1/1/3
f 24/24/3 3/3/3 23/23/3
f 23/23/3 3/3/3 8/8/3
f 23/23/3 8/8/3 22/22/3
f 32/32/3 18/18/3 21/21/3
f 18/18/3 32/32/3 117/153/3
f 118/154/2 18/155/2 117/156/2
f 18/18/2 118/157/2 119/158/2
f 32/32/1 118/157/1 117/153/1
f 118/157/1 32/32/1 120/159/1
f 120/159/1 32/32/1 121/160/1
f 120/159/1 121/160/1 122/161/1
f 121/160/1 32/32/1 38/38/1
f 122/161/1 123/162/1 120/159/1
f 121/160/13 40/163/13 124/164/13
f 40/163/13 121/160/13 38/38/13
f 118/157/13 125/165/13 119/158/13
f 125/165/13 118/157/13 120/159/13
f 123/162/2 125/165/2 120/159/2
f 125/165/2 123/162/2 126/166/2
f 126/166/2 123/162/2 127/167/2
f 122/161/19 127/167/19 123/162/19
f 127/167/19 122/161/19 128/168/19
f 127/167/13 129/169/13 126/166/13
f 129/169/13 127/167/13 128/168/13
f 124/164/5 122/161/5 121/160/5
f 122/161/5 124/164/5 129/169/5
f 122/161/5 129/169/5 128/168/5
f 55/61/3 9/9/3 49/55/3
f 9/9/3 55/61/3 54/60/3
f 9/9/3 54/60/3 16/16/3
f 16/16/3 54/60/3 14/14/3
f 11/11/3 49/55/3 9/9/3
f 49/55/3 11/11/3 50/56/3
f 50/56/3 11/11/3 14/14/3
f 50/56/3 14/14/3 54/60/3
f 130/170/1 60/67/1 35/35/1
f 60/67/1 130/170/1 131/171/1
f 131/171/1 130/170/1 132/172/1
f 132/172/1 130/170/1 133/173/1
f 134/174/1 131/171/1 132/172/1
f 131/171/1 134/174/1 135/175/1
f 130/170/3 52/58/3 53/59/3
f 52/58/3 130/170/3 35/35/3
f 53/59/5 133/173/5 130/170/5
f 133/173/5 53/59/5 136/176/5
f 89/177/20 137/178/20 138/179/20
f 137/178/20 89/177/20 139/180/20
f 137/178/2 140/181/2 138/179/2
f 140/181/2 137/178/2 141/182/2
f 137/178/13 142/183/13 141/182/13
f 142/183/13 137/178/13 139/180/13
f 142/183/5 89/177/5 88/184/5
f 89/177/5 142/183/5 139/180/5
f 141/182/21 88/185/21 140/186/21
f 88/185/21 141/182/21 142/183/21
f 143/187/5 144/188/5 145/189/5
f 144/188/5 143/187/5 146/190/5
f 147/191/4 80/192/4 82/193/4
f 80/192/4 147/191/4 145/194/4
f 145/194/4 147/191/4 143/195/4
f 147/191/22 146/196/22 143/195/22
f 146/196/22 147/191/22 148/197/22
f 82/193/13 148/197/13 147/191/13
f 148/197/13 82/193/13 83/198/13
f 148/197/13 83/198/13 85/199/13
f 87/200/1 148/197/1 85/199/1
f 148/197/1 87/200/1 144/201/1
f 148/197/1 144/201/1 146/196/1
f 62/202/13 131/171/13 149/203/13
f 131/171/13 62/202/13 60/67/13
f 132/172/13 136/176/13 150/204/13
f 136/176/13 132/172/13 133/173/13
f 151/205/5 132/172/5 150/204/5
f 132/172/5 151/205/5 134/174/5
f 134/174/5 151/205/5 152/206/5
f 153/207/13 151/208/13 154/209/13
f 151/208/13 153/207/13 152/210/13
f 134/174/19 153/211/19 135/175/19
f 153/211/19 134/174/19 152/206/19
f 135/175/2 149/203/2 131/171/2
f 149/203/2 135/175/2 154/212/2
f 154/212/2 135/175/2 153/211/2
f 155/213/2 156/214/2 157/215/2
f 156/214/2 155/213/2 158/216/2
f 91/217/1 155/213/1 157/215/1
f 155/213/1 91/217/1 159/218/1
f 159/218/1 91/217/1 93/219/1
f 159/218/23 158/216/23 155/213/23
f 158/220/23 159/221/23 160/222/23
f 160/222/13 100/223/13 94/224/13
f 100/223/13 160/222/13 159/221/13
f 100/223/13 159/221/13 93/225/13
f 158/216/4 97/226/4 156/214/4
f 97/226/4 158/216/4 160/227/4
f 97/226/4 160/227/4 94/228/4
f 161/229/2 99/230/2 98/231/2
f 99/230/2 161/229/2 162/232/2
f 161/229/13 163/233/13 162/232/13
f 163/233/13 161/229/13 164/234/13
f 165/235/20 161/229/20 98/231/20
f 161/229/20 165/235/20 164/234/20
f 163/233/5 165/235/5 166/236/5
f 165/235/5 163/233/5 164/234/5
f 163/233/21 99/237/21 162/232/21
f 99/237/21 163/233/21 166/238/21
f 18/239/3 167/240/3 25/241/3
f 167/240/3 18/239/3 168/242/3
f 169/243/2 167/240/2 168/242/2
f 167/240/2 169/243/2 170/244/2
f 171/245/23 170/244/23 169/243/23
f 170/244/23 171/245/23 172/246/23
f 172/246/4 167/240/4 170/244/4
f 167/240/4 172/246/4 25/241/4
f 25/247/4 172/248/4 27/249/4
f 18/239/24 169/243/1 168/242/1
f 169/243/1 18/239/24 171/245/1
f 171/250/1 18/251/24 173/252/25
f 173/253/25 18/18/24 119/158/1
f 173/254/25 119/255/1 125/256/1
f 173/254/25 125/256/1 126/257/1
f 124/258/1 41/259/1 129/260/1
f 41/259/1 124/258/1 40/261/1
f 171/245/13 27/262/13 172/246/13
f 27/262/13 171/245/13 173/263/13
f 126/264/19 69/265/19 173/263/19
f 69/265/19 126/264/19 86/108/19
f 86/108/19 126/264/19 129/266/19
f 86/108/19 129/266/19 174/267/19
f 174/267/19 129/266/19 41/43/19
f 79/101/4 78/97/4 76/99/4
f 78/97/4 79/101/4 26/268/4
f 26/268/4 79/101/4 81/103/4
f 26/268/4 81/103/4 28/53/4
f 28/53/4 81/103/4 175/269/4
f 69/265/2 27/262/2 173/263/2
f 27/262/2 69/265/2 26/268/2
f 26/268/2 69/265/2 78/97/2
f 176/270/3 56/62/3 177/271/3
f 56/62/3 176/270/3 53/59/3
f 178/272/4 56/273/4 58/274/4
f 56/275/4 178/276/4 177/277/4
f 177/277/4 178/276/4 179/278/4
f 179/278/5 176/279/5 177/277/5
f 176/279/5 179/278/5 180/280/5
f 178/276/22 180/280/22 179/278/22
f 180/280/22 178/276/22 181/281/22
f 47/51/2 175/269/2 182/282/2
f 175/269/2 47/51/2 28/53/2
f 183/283/26 47/51/26 182/282/26
f 47/51/26 183/283/26 46/49/26
f 86/108/1 67/284/1 69/265/1
f 67/284/1 86/108/1 84/106/1
f 138/285/2 76/99/2 67/284/2
f 76/99/2 138/285/2 140/286/2
f 67/284/20 89/111/20 138/285/20
f 89/111/20 67/284/20 84/106/20
f 88/110/21 76/99/21 140/286/21
f 76/99/21 88/110/21 79/101/21
f 184/287/13 178/276/13 58/288/13
f 178/276/13 184/287/13 181/281/13
f 183/283/5 59/66/5 46/49/5
f 59/66/5 183/283/5 185/289/5
f 116/146/4 96/118/4 95/117/4
f 57/290/4 96/118/4 116/146/4
f 59/66/4 96/118/4 57/290/4
f 96/118/4 59/66/4 185/289/4
f 57/63/4 116/147/4 104/127/4
f 61/69/19 92/114/19 186/291/19
f 92/114/19 61/69/19 154/209/19
f 92/114/19 154/209/19 151/208/19
f 92/114/19 151/208/19 106/131/19
f 106/131/19 151/208/19 184/287/19
f 80/102/13 175/269/13 81/103/13
f 175/269/13 80/102/13 145/292/13
f 145/292/13 174/267/13 175/269/13
f 174/267/13 145/292/13 144/293/13
f 174/267/13 144/293/13 87/109/13
f 174/267/13 87/109/13 86/108/13
f 176/279/1 136/294/1 53/295/1
f 136/294/1 176/279/1 181/281/1
f 181/281/1 176/279/1 180/280/1
f 184/287/1 136/294/1 181/281/1
f 151/208/1 136/294/1 184/287/1
f 136/296/1 151/297/1 150/298/1
f 149/299/1 61/300/1 62/301/1
f 61/300/1 149/299/1 154/302/1
f 185/289/13 156/303/13 96/118/13
f 156/303/13 185/289/13 186/291/13
f 96/118/13 156/303/13 97/119/13
f 156/303/13 186/291/13 157/304/13
f 92/114/13 157/304/13 186/291/13
f 157/304/13 92/114/13 91/113/13
f 106/131/1 90/112/1 92/114/1
f 90/112/1 106/131/1 110/149/1
f 110/149/20 98/120/20 90/112/20
f 98/120/20 110/149/20 165/305/20
f 166/306/21 95/117/21 99/121/21
f 95/117/21 166/306/21 116/146/21
f 104/126/5 58/288/5 57/290/5
f 58/288/5 104/126/5 184/287/5
f 184/287/5 104/126/5 106/131/5
f 166/306/5 110/149/5 116/146/5
f 110/149/5 166/306/5 165/305/5
